<svg width="10" height="10" viewBox="0 0 10 10" fill="none" xmlns="http://www.w3.org/2000/svg">
<path d="M0.732242 0.857872C0.50009 1.12985 0.315943 1.45273 0.190302 1.80809C0.064665 2.16344 0 2.54431 0 2.92894C0 3.31357 0.064665 3.69444 0.190302 4.0498C0.315943 4.40515 0.50009 4.72805 0.732242 5.00001L5 10L9.26777 5.00001C9.73662 4.45073 10 3.70574 10 2.92894C10 2.15214 9.73662 1.40715 9.26777 0.857872C8.79893 0.308592 8.16304 7.2826e-06 7.49998 7.2826e-06C6.83696 7.2826e-06 6.20107 0.308592 5.73222 0.857872L5 1.71572L4.26777 0.857872C4.03565 0.585891 3.76004 0.370148 3.45673 0.222953C3.15341 0.0757599 2.82832 0 2.50001 0C2.1717 0 1.84661 0.0757599 1.5433 0.222953C1.23998 0.370148 0.964386 0.585891 0.732242 0.857872Z" fill="#F88805"/>
</svg>
