<svg width="25" height="25" viewBox="0 0 25 25" fill="none" xmlns="http://www.w3.org/2000/svg">
<path d="M12.4315 0C14.8902 0 17.2937 0.733112 19.3381 2.10663C21.3824 3.48015 22.9758 5.43238 23.9167 7.71646C24.8576 10.0005 25.1038 12.5139 24.6241 14.9386C24.1444 17.3634 22.9605 19.5907 21.2219 21.3388C19.4833 23.087 17.2682 24.2775 14.8567 24.7598C12.4453 25.2421 9.94572 24.9946 7.67417 24.0485C5.40261 23.1024 3.46107 21.5002 2.09508 19.4446C0.729093 17.389 0 14.9723 0 12.5C0 10.8585 0.321553 9.23303 0.946293 7.71646C1.57103 6.19989 2.48673 4.8219 3.6411 3.66117C4.79547 2.50043 6.16591 1.57969 7.67417 0.951506C9.18242 0.323322 10.799 0 12.4315 0ZM8.47828 18.94C8.52468 19.0568 8.59539 19.1622 8.68566 19.2492C8.77594 19.3363 8.8837 19.4029 9.00169 19.4445C9.11972 19.4862 9.24522 19.502 9.36972 19.4909C9.49432 19.4798 9.61512 19.4419 9.72392 19.38L13.0991 16.7425L15.2646 18.7525C15.3149 18.7898 15.3737 18.8138 15.4356 18.8224C15.4975 18.8309 15.5605 18.8236 15.6189 18.8013L15.2037 15.065L15.1913 15.0763L15.1826 15.0025C15.1826 15.0025 9.10982 9.4425 8.86242 9.20625C8.6113 8.97 8.69459 8.91875 8.69459 8.91875C8.67967 8.63125 9.14332 8.91875 9.14332 8.91875L17.1903 14.1237L20.5406 12.9762C20.5406 12.9762 21.0552 12.7913 21.1037 12.3825C21.1547 11.9775 20.5244 11.7575 20.5244 11.7575L7.20157 6.435C7.20157 6.435 6.10635 5.945 6.10635 6.7575L8.47828 18.94Z" fill="#34ABE3"/>
</svg>
